<?xml version="1.0" encoding="UTF-8" standalone="no"?>
<svg width="150px" height="106px" viewBox="0 0 150 106" version="1.1" xmlns="http://www.w3.org/2000/svg" xmlns:xlink="http://www.w3.org/1999/xlink">
    <!-- Generator: Sketch 39.1 (31720) - http://www.bohemiancoding.com/sketch -->
    <title>brand</title>
    <desc>Created with Sketch.</desc>
    <defs>
        <path d="M20.269673,6.41011921 C22.5849265,2.56924503 26.8007867,0 31.6176449,0 C35.9997724,0 39.8844842,2.1264106 42.2932515,5.40219205 C46.6504403,4.32091391 51.4510153,5.48068874 54.8570551,8.88151656 C57.9556781,11.9754106 59.1966872,16.2217152 58.5800694,20.2386954 C62.4268224,22.5504106 65,26.7598278 65,31.5693245 C65,35.944755 62.8703347,39.8235298 59.5895393,42.2286159 C60.6724724,46.5791457 59.5109224,51.3723841 56.1048893,54.7732185 C53.0062597,57.867106 48.7534556,59.1062185 44.730327,58.490543 C42.4150735,62.3314139 38.1992133,64.9006623 33.3823551,64.9006623 C29.0002276,64.9006623 25.1155158,62.774253 22.7067485,59.4984702 C18.3495597,60.5797497 13.5489847,59.4199735 10.1429449,56.0191457 C7.04432194,52.9252517 5.80331276,48.678947 6.41993061,44.6619669 C2.57318087,42.3502517 0,38.1408344 0,33.3313377 C0,28.9559073 2.12966398,25.0771325 5.41046071,22.6720464 C4.32752622,18.3215166 5.48907755,13.5282781 8.89511071,10.1274437 C11.9937403,7.03355629 16.2465444,5.79444371 20.269673,6.41011921 L20.269673,6.41011921 Z M29.6025189,26.2779404 C30.259576,26.3781589 30.9325316,26.4301325 31.6176449,26.4301325 C32.7227643,26.4301325 33.7962393,26.2949007 34.8223969,26.0400927 C35.2160316,26.5748609 35.6550735,27.0867351 36.1395224,27.5704437 C36.9209551,28.3506821 37.7757913,29.0129603 38.6818383,29.5572781 C38.5814663,30.2133311 38.5294133,30.8852583 38.5294133,31.5693245 C38.5294133,32.672755 38.664852,33.7445894 38.92005,34.7691788 C38.3844633,35.1622119 37.8718056,35.6005828 37.3873566,36.0842914 C36.605924,36.8645298 35.9426321,37.7180596 35.3974811,38.6227219 C34.740424,38.5225033 34.0674684,38.4705298 33.3823551,38.4705298 C32.2772357,38.4705298 31.2037607,38.6057616 30.1776031,38.8605695 C29.7839684,38.3258013 29.3449265,37.8139272 28.8604776,37.3302185 C28.0790449,36.5499801 27.2242087,35.887702 26.3181617,35.3433841 C26.4185337,34.6873311 26.4705867,34.015404 26.4705867,33.3313377 C26.4705867,32.2279073 26.335148,31.1560728 26.07995,30.1314834 C26.6155367,29.7384503 27.1281944,29.3000795 27.6126434,28.8163709 C28.394076,28.0361325 29.0573679,27.1826026 29.6025189,26.2779404 L29.6025189,26.2779404 Z" id="path-1"></path>
    </defs>
    <g id="Page-1" stroke="none" stroke-width="1" fill="none" fill-rule="evenodd">
        <g id="brand">
            <g transform="translate(4.000000, 2.000000)">
                <path d="M8.44555664,84.0032595 C9.21362689,84.2314271 9.88329792,84.5388148 10.4545898,84.925432 L9.78808594,86.3894997 C9.20409864,86.0028825 8.58044765,85.7145084 7.91711426,85.5243688 C7.25378086,85.3342292 6.62378228,85.2391608 6.02709961,85.2391608 C5.14477098,85.2391608 4.44018818,85.3976081 3.91333008,85.7145075 C3.38647198,86.0314068 3.12304688,86.4782282 3.12304688,87.054985 C3.12304688,87.549348 3.26904151,87.958142 3.56103516,88.2813793 C3.8530288,88.6046167 4.21960229,88.8565479 4.6607666,89.0371805 C5.10193092,89.2178131 5.70653913,89.4253791 6.47460938,89.6598846 C7.40771951,89.95777 8.15832235,90.2366373 8.72644043,90.4964947 C9.2945585,90.7563522 9.78014935,91.1397947 10.1832275,91.6468336 C10.5863057,92.1538726 10.7878418,92.8225202 10.7878418,93.6527965 C10.7878418,94.4070169 10.5831319,95.0661577 10.1737061,95.6302385 C9.76428018,96.1943194 9.18506234,96.6316339 8.43603516,96.9421953 C7.68700797,97.2527566 6.82373536,97.408035 5.84619141,97.408035 C4.86864746,97.408035 3.91968234,97.2194827 2.99926758,96.8423725 C2.07885282,96.4652622 1.28857752,95.9598154 0.628417969,95.3260167 L1.32348633,93.9284975 C1.94555975,94.5369443 2.66442463,95.0091172 3.48010254,95.3450305 C4.29578045,95.6809438 5.09081644,95.848898 5.86523437,95.848898 C6.8554737,95.848898 7.63622761,95.6571767 8.20751953,95.2737285 C8.77881145,94.8902803 9.06445312,94.3753266 9.06445312,93.7288519 C9.06445312,93.221813 8.91528469,92.8035121 8.61694336,92.4739368 C8.31860202,92.1443615 7.94885474,91.8876768 7.50769043,91.7038752 C7.06652611,91.5200736 6.4619179,91.3140921 5.69384766,91.0859246 C4.7734329,90.8133911 4.02600385,90.5503686 3.45153809,90.2968491 C2.87707232,90.0433297 2.39148148,89.6662251 1.99475098,89.1655241 C1.59802048,88.6648231 1.3996582,88.0056824 1.3996582,87.1880821 C1.3996582,86.4845655 1.59484668,85.866621 1.98522949,85.3342301 C2.3756123,84.8018392 2.92943977,84.3898763 3.64672852,84.0983288 C4.36401726,83.8067814 5.18920432,83.6610099 6.12231445,83.6610099 C6.90308008,83.6610099 7.67748639,83.775092 8.44555664,84.0032595 L8.44555664,84.0032595 Z M20.9453552,85.2201469 L20.9453552,89.6979124 L27.8293884,89.6979124 L27.8293884,91.2000078 L20.9453552,91.2000078 L20.9453552,95.8679118 L28.9053162,95.8679118 L28.9053162,97.3509934 L19.3838318,97.3509934 L19.3838318,83.7180515 L28.6482361,83.7180515 L28.6482361,85.2201469 L20.9453552,85.2201469 Z M47.2322632,97.3509934 L39.0437866,86.4085136 L39.0437866,97.3509934 L37.4822632,97.3509934 L37.4822632,83.7180515 L39.1009155,83.7180515 L47.2893921,94.6795452 L47.2893921,83.7180515 L48.8318726,83.7180515 L48.8318726,97.3509934 L47.2322632,97.3509934 Z M68.1395325,97.3509934 L59.9510559,86.4085136 L59.9510559,97.3509934 L58.3895325,97.3509934 L58.3895325,83.7180515 L60.0081848,83.7180515 L68.1966614,94.6795452 L68.1966614,83.7180515 L69.7391419,83.7180515 L69.7391419,97.3509934 L68.1395325,97.3509934 Z M88.7516358,84.5974428 C89.8434381,85.2090586 90.7082976,86.0377379 91.3462403,87.0835058 C91.9841829,88.1292736 92.3031495,89.279601 92.3031495,90.5345225 C92.3031495,91.7957819 91.9841829,92.9524471 91.3462403,94.004553 C90.7082976,95.0566588 89.8434381,95.8900916 88.7516358,96.5048763 C87.6598334,97.1196611 86.466486,97.4270488 85.1715577,97.4270488 C83.8575862,97.4270488 82.6547174,97.1196611 81.5629151,96.5048763 C80.4711127,95.8900916 79.6062532,95.0566588 78.9683106,94.004553 C78.3303679,92.9524471 78.0114014,91.7957819 78.0114014,90.5345225 C78.0114014,89.273263 78.3303679,88.1181822 78.9683106,87.0692454 C79.6062532,86.0203085 80.4711127,85.1932137 81.5629151,84.5879359 C82.6547174,83.9826581 83.8575862,83.6800238 85.1715577,83.6800238 C86.466486,83.6800238 87.6598334,83.9858271 88.7516358,84.5974428 L88.7516358,84.5974428 Z M82.3912842,85.8856322 C81.540694,86.3673193 80.8615016,87.0169532 80.3536866,87.8345535 C79.8458715,88.6521538 79.5919678,89.5521345 79.5919678,90.5345225 C79.5919678,91.5232484 79.8458715,92.429567 80.3536866,93.2535053 C80.8615016,94.0774436 81.540694,94.728662 82.3912842,95.20718 C83.2418744,95.685698 84.168623,95.9249534 85.1715577,95.9249534 C86.1744924,95.9249534 87.0964802,95.685698 87.9375489,95.20718 C88.7786175,94.728662 89.4498755,94.0774436 89.9513428,93.2535053 C90.4528102,92.429567 90.7035401,91.5232484 90.7035401,90.5345225 C90.7035401,89.5457965 90.4528102,88.6442314 89.9513428,87.8298 C89.4498755,87.0153687 88.7770306,86.3673193 87.9327881,85.8856322 C87.0885456,85.4039452 86.1681447,85.1631053 85.1715577,85.1631053 C84.168623,85.1631053 83.2418744,85.4039452 82.3912842,85.8856322 L82.3912842,85.8856322 Z M109.544647,84.6259636 C110.325413,85.2312414 110.71579,86.0662586 110.71579,87.1310405 C110.71579,87.9359648 110.495211,88.6077814 110.054047,89.1465102 C109.612882,89.6852391 108.995579,90.0369921 108.202118,90.2017798 C109.192357,90.3475535 109.960416,90.7246581 110.506317,91.3331048 C111.052218,91.9415516 111.325165,92.7147744 111.325165,93.6527965 C111.325165,94.8063101 110.888768,95.7110442 110.015961,96.3670258 C109.143154,97.0230075 107.938698,97.3509934 106.402557,97.3509934 L100.556366,97.3509934 L100.556366,83.7180515 L106.307343,83.7180515 C107.684791,83.7180515 108.763882,84.0206859 109.544647,84.6259636 L109.544647,84.6259636 Z M102.117889,89.602843 L106.231171,89.602843 C107.151585,89.602843 107.86569,89.4111218 108.373505,89.0276736 C108.88132,88.6442254 109.135223,88.0944132 109.135223,87.3782207 C109.135223,86.6873801 108.88132,86.1549972 108.373505,85.781056 C107.86569,85.4071147 107.151585,85.2201469 106.231171,85.2201469 L102.117889,85.2201469 L102.117889,89.602843 Z M102.117889,95.8679118 L106.231171,95.8679118 C107.348364,95.8679118 108.213223,95.6571769 108.825775,95.2357008 C109.438327,94.8142247 109.744598,94.2137094 109.744598,93.434137 C109.744598,92.6925925 109.435153,92.1158444 108.816254,91.7038752 C108.197354,91.2919061 107.335668,91.0859246 106.231171,91.0859246 L102.117889,91.0859246 L102.117889,95.8679118 Z M119.921155,97.3509934 L119.921155,83.7180515 L121.482678,83.7180515 L121.482678,97.3509934 L119.921155,97.3509934 Z M132.211481,93.9094837 L130.688043,97.3509934 L129.031305,97.3509934 L135.153619,83.7180515 L136.772272,83.7180515 L142.875543,97.3509934 L141.180719,97.3509934 L139.657282,93.9094837 L132.211481,93.9094837 Z M135.915338,85.495848 L132.877985,92.4073882 L139.000299,92.4073882 L135.915338,85.495848 Z" id="S-E-N-N-O-B-I-A" fill="#373737"></path>
                <g id="senn_logo_1024" transform="translate(39.000000, 0.000000)">
                    <mask id="mask-2" fill="white">
                        <use xlink:href="#path-1"></use>
                    </mask>
                    <g id="Clip-2"></g>
                    <polygon id="Fill-1" fill="#D9F0F7" mask="url(#mask-2)" points="-0.331632653 -0.331125828 65.3316327 -0.331125828 65.3316327 65.2317881 -0.331632653 65.2317881"></polygon>
                </g>
            </g>
        </g>
    </g>
</svg>